<svg width="2327" height="717" viewBox="0 0 2327 717" fill="none" xmlns="http://www.w3.org/2000/svg">
<rect x="275" y="516" width="195" height="201" fill="#173C35"/>
<rect y="516" width="195" height="201" fill="#173C35"/>
<rect x="470" y="247" width="195" height="470" transform="rotate(90 470 247)" fill="#173C35"/>
<path d="M952.473 276.426V311.289H809.26V690H708.088V311.289H564.875V276.426H952.473ZM1029.38 276.426H1130.89V690H1029.38V276.426ZM1379.04 696.494C1354.43 696.494 1332.78 693.646 1314.09 687.949C1295.41 682.025 1279.57 673.936 1266.58 663.682C1253.6 653.428 1243.23 641.237 1235.48 627.109C1227.96 612.982 1222.72 597.487 1219.76 580.625H1289.83C1292.33 590.879 1295.98 600.449 1300.76 609.336C1305.55 618.223 1311.47 626.084 1318.54 632.92C1325.83 639.528 1334.37 644.769 1344.17 648.643C1353.97 652.288 1365.36 654.111 1378.35 654.111C1387.01 654.111 1395.56 653.2 1403.99 651.377C1412.42 649.554 1419.94 646.592 1426.54 642.49C1433.15 638.389 1438.51 633.034 1442.61 626.426C1446.71 619.59 1448.76 611.387 1448.76 601.816C1448.76 589.512 1445.57 578.574 1439.19 569.004C1432.81 559.434 1424.49 550.775 1414.24 543.027C1403.99 535.052 1392.25 527.646 1379.04 520.811C1365.82 513.975 1352.26 507.139 1338.36 500.303C1324.46 493.467 1310.9 486.403 1297.69 479.111C1284.47 471.592 1272.74 463.161 1262.48 453.818C1252.23 444.476 1243.91 433.994 1237.53 422.373C1231.15 410.752 1227.96 397.422 1227.96 382.383C1227.96 365.977 1231.49 350.824 1238.56 336.924C1245.85 322.796 1256.33 310.605 1270 300.352C1283.67 289.87 1300.42 281.781 1320.25 276.084C1340.07 270.16 1362.51 267.197 1387.58 267.197C1408.32 267.197 1427.11 270.16 1443.98 276.084C1461.07 281.781 1475.99 289.642 1488.75 299.668C1501.74 309.694 1512.56 321.543 1521.22 335.215C1530.11 348.659 1536.95 363.242 1541.73 378.965H1477.81C1474.17 369.167 1469.84 359.824 1464.83 350.938C1460.04 341.823 1454 333.962 1446.71 327.354C1439.65 320.518 1430.99 315.163 1420.73 311.289C1410.71 307.188 1398.75 305.137 1384.85 305.137C1371.63 305.137 1360.46 306.846 1351.35 310.264C1342.24 313.682 1334.83 318.125 1329.13 323.594C1323.66 328.835 1319.68 334.759 1317.17 341.367C1314.66 347.975 1313.41 354.469 1313.41 360.85C1313.41 372.015 1316.6 382.041 1322.98 390.928C1329.59 399.814 1338.25 408.132 1348.96 415.879C1359.67 423.626 1371.86 431.032 1385.53 438.096C1399.2 444.932 1413.1 451.995 1427.23 459.287C1441.58 466.351 1455.6 473.87 1469.27 481.846C1482.94 489.593 1495.13 498.138 1505.84 507.48C1516.55 516.823 1525.1 527.191 1531.48 538.584C1538.08 549.977 1541.39 562.852 1541.39 577.207C1541.39 594.069 1537.86 609.792 1530.79 624.375C1523.96 638.73 1513.7 651.263 1500.03 661.973C1486.36 672.682 1469.38 681.113 1449.1 687.266C1428.82 693.418 1405.47 696.494 1379.04 696.494ZM1630.26 276.426H1731.77V690H1630.26V276.426ZM1838.07 276.426H1902.67L2138.51 539.609V276.426H2202.42V696.494H2158.33L1902.33 405.967V690H1838.07V276.426Z" fill="black"/>
</svg>
