<svg width="2110" height="777" viewBox="0 0 2110 777" fill="none" xmlns="http://www.w3.org/2000/svg">
<rect x="265.594" y="452.011" width="188.333" height="194.128" fill="black"/>
<rect y="452.011" width="188.333" height="194.128" fill="black"/>
<rect x="453.93" y="192.205" width="188.333" height="453.932" transform="rotate(90 453.93 192.205)" fill="black"/>
<path d="M873.977 237.508V267.391H751.223V592H664.504V267.391H541.75V237.508H873.977ZM939.895 237.508H1026.91V592H939.895V237.508ZM1239.6 597.566C1218.51 597.566 1199.95 595.125 1183.94 590.242C1167.92 585.164 1154.35 578.23 1143.21 569.441C1132.08 560.652 1123.2 550.203 1116.55 538.094C1110.11 525.984 1105.62 512.703 1103.08 498.25H1163.14C1165.29 507.039 1168.41 515.242 1172.51 522.859C1176.61 530.477 1181.69 537.215 1187.75 543.074C1194 548.738 1201.32 553.23 1209.72 556.551C1218.12 559.676 1227.88 561.238 1239.02 561.238C1246.44 561.238 1253.76 560.457 1260.99 558.895C1268.21 557.332 1274.66 554.793 1280.32 551.277C1285.99 547.762 1290.58 543.172 1294.09 537.508C1297.61 531.648 1299.37 524.617 1299.37 516.414C1299.37 505.867 1296.63 496.492 1291.16 488.289C1285.7 480.086 1278.57 472.664 1269.78 466.023C1260.99 459.188 1250.93 452.84 1239.6 446.98C1228.27 441.121 1216.65 435.262 1204.74 429.402C1192.82 423.543 1181.2 417.488 1169.88 411.238C1158.55 404.793 1148.49 397.566 1139.7 389.559C1130.91 381.551 1123.78 372.566 1118.31 362.605C1112.84 352.645 1110.11 341.219 1110.11 328.328C1110.11 314.266 1113.14 301.277 1119.19 289.363C1125.44 277.254 1134.43 266.805 1146.14 258.016C1157.86 249.031 1172.22 242.098 1189.21 237.215C1206.2 232.137 1225.44 229.598 1246.93 229.598C1264.7 229.598 1280.81 232.137 1295.27 237.215C1309.91 242.098 1322.71 248.836 1333.64 257.43C1344.78 266.023 1354.05 276.18 1361.48 287.898C1369.09 299.422 1374.95 311.922 1379.05 325.398H1324.27C1321.14 317 1317.43 308.992 1313.14 301.375C1309.04 293.562 1303.86 286.824 1297.61 281.16C1291.55 275.301 1284.13 270.711 1275.34 267.391C1266.75 263.875 1256.5 262.117 1244.58 262.117C1233.25 262.117 1223.68 263.582 1215.87 266.512C1208.06 269.441 1201.71 273.25 1196.83 277.938C1192.14 282.43 1188.72 287.508 1186.57 293.172C1184.43 298.836 1183.35 304.402 1183.35 309.871C1183.35 319.441 1186.09 328.035 1191.55 335.652C1197.22 343.27 1204.64 350.398 1213.82 357.039C1223 363.68 1233.45 370.027 1245.17 376.082C1256.89 381.941 1268.8 387.996 1280.91 394.246C1293.21 400.301 1305.23 406.746 1316.95 413.582C1328.66 420.223 1339.11 427.547 1348.29 435.555C1357.47 443.562 1364.8 452.449 1370.27 462.215C1375.93 471.98 1378.76 483.016 1378.76 495.32C1378.76 509.773 1375.73 523.25 1369.68 535.75C1363.82 548.055 1355.03 558.797 1343.31 567.977C1331.59 577.156 1317.04 584.383 1299.66 589.656C1282.28 594.93 1262.26 597.566 1239.6 597.566ZM1454.93 237.508H1541.95V592H1454.93V237.508ZM1633.06 237.508H1688.43L1890.58 463.094V237.508H1945.36V597.566H1907.57L1688.14 348.543V592H1633.06V237.508Z" fill="black"/>
</svg>
