<svg width="1587" height="777" viewBox="0 0 1587 777" fill="none" xmlns="http://www.w3.org/2000/svg">
<path d="M350.977 237.508V267.391H228.223V592H141.504V267.391H18.75V237.508H350.977ZM416.895 237.508H503.906V592H416.895V237.508ZM716.602 597.566C695.508 597.566 676.953 595.125 660.938 590.242C644.922 585.164 631.348 578.23 620.215 569.441C609.082 560.652 600.195 550.203 593.555 538.094C587.109 525.984 582.617 512.703 580.078 498.25H640.137C642.285 507.039 645.41 515.242 649.512 522.859C653.613 530.477 658.691 537.215 664.746 543.074C670.996 548.738 678.32 553.23 686.719 556.551C695.117 559.676 704.883 561.238 716.016 561.238C723.438 561.238 730.762 560.457 737.988 558.895C745.215 557.332 751.66 554.793 757.324 551.277C762.988 547.762 767.578 543.172 771.094 537.508C774.609 531.648 776.367 524.617 776.367 516.414C776.367 505.867 773.633 496.492 768.164 488.289C762.695 480.086 755.566 472.664 746.777 466.023C737.988 459.188 727.93 452.84 716.602 446.98C705.273 441.121 693.652 435.262 681.738 429.402C669.824 423.543 658.203 417.488 646.875 411.238C635.547 404.793 625.488 397.566 616.699 389.559C607.91 381.551 600.781 372.566 595.312 362.605C589.844 352.645 587.109 341.219 587.109 328.328C587.109 314.266 590.137 301.277 596.191 289.363C602.441 277.254 611.426 266.805 623.145 258.016C634.863 249.031 649.219 242.098 666.211 237.215C683.203 232.137 702.441 229.598 723.926 229.598C741.699 229.598 757.812 232.137 772.266 237.215C786.914 242.098 799.707 248.836 810.645 257.43C821.777 266.023 831.055 276.18 838.477 287.898C846.094 299.422 851.953 311.922 856.055 325.398H801.27C798.145 317 794.434 308.992 790.137 301.375C786.035 293.562 780.859 286.824 774.609 281.16C768.555 275.301 761.133 270.711 752.344 267.391C743.75 263.875 733.496 262.117 721.582 262.117C710.254 262.117 700.684 263.582 692.871 266.512C685.059 269.441 678.711 273.25 673.828 277.938C669.141 282.43 665.723 287.508 663.574 293.172C661.426 298.836 660.352 304.402 660.352 309.871C660.352 319.441 663.086 328.035 668.555 335.652C674.219 343.27 681.641 350.398 690.82 357.039C700 363.68 710.449 370.027 722.168 376.082C733.887 381.941 745.801 387.996 757.91 394.246C770.215 400.301 782.227 406.746 793.945 413.582C805.664 420.223 816.113 427.547 825.293 435.555C834.473 443.562 841.797 452.449 847.266 462.215C852.93 471.98 855.762 483.016 855.762 495.32C855.762 509.773 852.734 523.25 846.68 535.75C840.82 548.055 832.031 558.797 820.312 567.977C808.594 577.156 794.043 584.383 776.66 589.656C759.277 594.93 739.258 597.566 716.602 597.566ZM931.934 237.508H1018.95V592H931.934V237.508ZM1110.06 237.508H1165.43L1367.58 463.094V237.508H1422.36V597.566H1384.57L1165.14 348.543V592H1110.06V237.508Z" fill="black"/>
</svg>
